<svg width="25" height="25" viewBox="0 0 25 25" fill="none" xmlns="http://www.w3.org/2000/svg">
<path d="M12.4999 3C13.6933 3 14.8376 3.47447 15.6815 4.31836C16.5254 5.16227 16.9999 6.30653 16.9999 7.5V9.25H18.7499C18.9344 9.24999 19.1123 9.31834 19.2499 9.44141C19.3874 9.56457 19.4757 9.73445 19.496 9.91797L20.746 21.168C20.7575 21.2725 20.7467 21.3784 20.7147 21.4785C20.6826 21.5789 20.6288 21.6715 20.5585 21.75C20.4881 21.8286 20.4018 21.8915 20.3055 21.9346C20.2093 21.9775 20.1052 22 19.9999 22H4.99988C4.89451 22 4.79043 21.9775 4.69421 21.9346C4.59793 21.8915 4.51163 21.8286 4.44128 21.75C4.37099 21.6715 4.31817 21.5789 4.28601 21.4785C4.25392 21.3783 4.24324 21.2726 4.25476 21.168L5.50476 9.91797C5.52507 9.73445 5.61232 9.56457 5.74988 9.44141C5.85301 9.34909 5.97877 9.28762 6.11316 9.2627L6.24988 9.25H7.99988V7.5C7.99988 6.30655 8.47435 5.16227 9.31824 4.31836C10.1621 3.47447 11.3064 3.00002 12.4999 3ZM8.74988 10.75C8.28578 10.75 7.84074 10.9345 7.51257 11.2627C7.18441 11.5909 6.99988 12.0359 6.99988 12.5C6.99988 12.9641 7.18441 13.4091 7.51257 13.7373C7.84074 14.0655 8.28578 14.25 8.74988 14.25C9.21399 14.25 9.659 14.0655 9.98718 13.7373C10.3154 13.4091 10.4999 12.9641 10.4999 12.5C10.4999 12.0359 10.3154 11.5909 9.98718 11.2627C9.659 10.9345 9.21399 10.75 8.74988 10.75ZM16.2499 10.75C15.7858 10.75 15.3407 10.9345 15.0126 11.2627C14.6844 11.5909 14.4999 12.0359 14.4999 12.5C14.4999 12.9641 14.6844 13.4091 15.0126 13.7373C15.3407 14.0655 15.7858 14.25 16.2499 14.25C16.714 14.25 17.159 14.0655 17.4872 13.7373C17.8154 13.4091 17.9999 12.9641 17.9999 12.5C17.9999 12.0359 17.8154 11.5909 17.4872 11.2627C17.159 10.9345 16.714 10.75 16.2499 10.75ZM12.4999 4.5C11.7043 4.50002 10.9414 4.81632 10.3788 5.37891C9.8162 5.94151 9.49988 6.70437 9.49988 7.5V9.25H15.4999V7.5C15.4999 6.70435 15.1836 5.94152 14.621 5.37891C14.0584 4.81632 13.2955 4.5 12.4999 4.5Z" fill="#777777" stroke="#777777"/>
</svg>
